<svg width="194" height="64" viewBox="0 0 194 64" fill="none" xmlns="http://www.w3.org/2000/svg">
<g clip-path="url(#clip0)">
<path d="M187.216 38.8053L192.57 42.3562C190.832 44.9024 186.676 49.2712 179.49 49.2712C170.567 49.2712 163.922 42.403 163.922 33.6659C163.922 24.3685 170.638 18.061 178.739 18.061C186.887 18.061 190.879 24.5084 192.171 27.9892L192.875 29.7648L171.882 38.4082C173.479 41.5387 175.968 43.1272 179.49 43.1272C183.013 43.1272 185.455 41.3984 187.216 38.8053ZM170.755 33.1758L184.774 27.382C183.999 25.4433 181.698 24.0652 178.95 24.0652C175.452 24.0652 170.591 27.1488 170.755 33.1758Z" fill="#FF302F"/>
<path d="M153.801 2.15247H160.563V47.8462H153.801V2.1521V2.15247Z" fill="#20B15A"/>
<path d="M143.139 19.2755H149.667V47.0281C149.667 58.5447 142.834 63.287 134.756 63.287C127.148 63.287 122.569 58.1945 120.854 54.0597L126.842 51.5832C127.922 54.1295 130.529 57.1433 134.756 57.1433C139.945 57.1433 143.139 53.9427 143.139 47.9626V45.7201H142.904C141.354 47.5887 138.396 49.2706 134.638 49.2706C126.795 49.2706 119.609 42.4726 119.609 33.7126C119.609 24.9053 126.795 18.0376 134.638 18.0376C138.372 18.0376 141.354 19.6962 142.904 21.5183H143.139V19.2758V19.2755ZM143.608 33.7126C143.608 28.1993 139.922 24.1812 135.225 24.1812C130.482 24.1812 126.49 28.1993 126.49 33.7126C126.49 39.1553 130.482 43.1033 135.225 43.1033C139.922 43.127 143.609 39.1553 143.609 33.7126H143.608Z" fill="#3686F7"/>
<path d="M82.4856 33.5956C82.4856 42.5896 75.4411 49.2005 66.7994 49.2005C58.1582 49.2005 51.1133 42.5664 51.1133 33.5956C51.1133 24.5551 58.1582 17.9675 66.7994 17.9675C75.4411 17.9675 82.4856 24.5551 82.4856 33.5956ZM75.6288 33.5956C75.6288 27.9894 71.5426 24.1344 66.7994 24.1344C62.0562 24.1344 57.9701 27.9894 57.9701 33.5956C57.9701 39.1554 62.0562 43.0569 66.7994 43.0569C71.543 43.0569 75.6288 39.1554 75.6288 33.5956Z" fill="#FF302F"/>
<path d="M116.743 33.6659C116.743 42.6599 109.699 49.2708 101.057 49.2708C92.4156 49.2708 85.3711 42.6595 85.3711 33.6659C85.3711 24.6254 92.4156 18.061 101.057 18.061C109.699 18.061 116.743 24.6022 116.743 33.6659ZM109.863 33.6659C109.863 28.0597 105.777 24.2047 101.033 24.2047C96.2903 24.2047 92.2041 28.0597 92.2041 33.6659C92.2041 39.2257 96.2903 43.1272 101.033 43.1272C105.8 43.1272 109.863 39.2024 109.863 33.6659Z" fill="#FFBA40"/>
<path d="M25.3287 42.4262C15.4894 42.4262 7.78753 34.5302 7.78753 24.7419C7.78753 14.954 15.4894 7.05803 25.3287 7.05803C30.6358 7.05803 34.5101 9.13703 37.375 11.8003L42.0952 7.1049C38.1032 3.29715 32.7727 0.399902 25.3287 0.399902C11.85 0.400277 0.507812 11.3334 0.507812 24.7419C0.507812 38.1512 11.85 49.0839 25.3287 49.0839C32.6084 49.0839 38.1032 46.7012 42.4005 42.2627C46.815 37.8707 48.1769 31.7034 48.1769 26.7043C48.1769 25.139 47.9892 23.5273 47.7777 22.3359H25.3287V28.8302H41.3202C40.8505 32.8952 39.559 35.675 37.6569 37.5669C35.3556 39.8799 31.7161 42.4262 25.3287 42.4262Z" fill="#3686F7"/>
</g>
<defs>
<clipPath id="clip0">
<rect width="193" height="63" fill="white" transform="translate(0.226562 0.303223)"/>
</clipPath>
</defs>
</svg>
